<svg width="512" height="512" xmlns="http://www.w3.org/2000/svg">
  <defs>
    <linearGradient id="maskableBgGradient512" x1="0%" y1="0%" x2="100%" y2="100%">
      <stop offset="0%" style="stop-color:#4F46E5;stop-opacity:1" />
      <stop offset="100%" style="stop-color:#7C3AED;stop-opacity:1" />
    </linearGradient>
  </defs>
  
  <!-- Full background (no rounded corners for maskable) -->
  <rect x="0" y="0" width="512" height="512" fill="url(#maskableBgGradient512)" />
  
  <!-- Safe zone content (centered, smaller to ensure visibility when cropped) -->
  <!-- Calendar icon - positioned in safe zone (40% from edges) -->
  <rect x="154" y="180" width="204" height="170" rx="16" ry="16" fill="white" />
  <rect x="154" y="180" width="204" height="54" rx="16" ry="16" fill="#E5E7EB" />
  
  <!-- Calendar rings -->
  <rect x="198" y="154" width="16" height="54" rx="8" ry="8" fill="white" />
  <rect x="298" y="154" width="16" height="54" rx="8" ry="8" fill="white" />
  
  <!-- Calendar grid -->
  <line x1="180" y1="260" x2="332" y2="260" stroke="#D1D5DB" stroke-width="3"/>
  <line x1="180" y1="290" x2="332" y2="290" stroke="#D1D5DB" stroke-width="3"/>
  <line x1="180" y1="320" x2="332" y2="320" stroke="#D1D5DB" stroke-width="3"/>
  
  <line x1="218" y1="234" x2="218" y2="350" stroke="#D1D5DB" stroke-width="3"/>
  <line x1="256" y1="234" x2="256" y2="350" stroke="#D1D5DB" stroke-width="3"/>
  <line x1="294" y1="234" x2="294" y2="350" stroke="#D1D5DB" stroke-width="3"/>
  
  <!-- Today highlight -->
  <circle cx="237" cy="275" r="12" fill="#4F46E5" />
</svg>