<svg width="192" height="192" xmlns="http://www.w3.org/2000/svg">
  <defs>
    <linearGradient id="maskableBgGradient" x1="0%" y1="0%" x2="100%" y2="100%">
      <stop offset="0%" style="stop-color:#4F46E5;stop-opacity:1" />
      <stop offset="100%" style="stop-color:#7C3AED;stop-opacity:1" />
    </linearGradient>
  </defs>
  
  <!-- Full background (no rounded corners for maskable) -->
  <rect x="0" y="0" width="192" height="192" fill="url(#maskableBgGradient)" />
  
  <!-- Safe zone content (centered, smaller to ensure visibility when cropped) -->
  <!-- Calendar icon - positioned in safe zone (40% from edges) -->
  <rect x="58" y="68" width="76" height="64" rx="6" ry="6" fill="white" />
  <rect x="58" y="68" width="76" height="20" rx="6" ry="6" fill="#E5E7EB" />
  
  <!-- Calendar rings -->
  <rect x="74" y="58" width="6" height="20" rx="3" ry="3" fill="white" />
  <rect x="112" y="58" width="6" height="20" rx="3" ry="3" fill="white" />
  
  <!-- Calendar grid -->
  <line x1="68" y1="98" x2="124" y2="98" stroke="#D1D5DB" stroke-width="1"/>
  <line x1="68" y1="108" x2="124" y2="108" stroke="#D1D5DB" stroke-width="1"/>
  <line x1="68" y1="118" x2="124" y2="118" stroke="#D1D5DB" stroke-width="1"/>
  
  <line x1="80" y1="88" x2="80" y2="132" stroke="#D1D5DB" stroke-width="1"/>
  <line x1="96" y1="88" x2="96" y2="132" stroke="#D1D5DB" stroke-width="1"/>
  <line x1="112" y1="88" x2="112" y2="132" stroke="#D1D5DB" stroke-width="1"/>
  
  <!-- Today highlight -->
  <circle cx="88" cy="105" r="4" fill="#4F46E5" />
</svg>